<svg width="20" height="21" viewBox="0 0 20 21" fill="none" xmlns="http://www.w3.org/2000/svg">
<path fill-rule="evenodd" clip-rule="evenodd" d="M11.688 0.986084H8.31204C8.14132 0.986084 8 1.06886 8 1.16741V8.98608H0.181328C0.133449 8.98725 0.0877206 9.0205 0.0538611 9.07877C0.0200015 9.13704 0.000679262 9.21573 0 9.29813V12.674C0 12.8448 0.0827806 12.9861 0.181329 12.9861H8V20.8041C8.0003 20.8522 8.03323 20.8983 8.09165 20.9324C8.15007 20.9664 8.22927 20.9857 8.31204 20.9861H11.688C11.7704 20.9854 11.849 20.9661 11.9073 20.9322C11.9656 20.8984 11.9988 20.8526 12 20.8048V12.9861H19.818C19.8661 12.9858 19.9122 12.9529 19.9463 12.8944C19.9804 12.836 19.9997 12.7568 20 12.674V9.29813C19.9993 9.21573 19.98 9.13704 19.9461 9.07877C19.9123 9.0205 19.8666 8.98725 19.8187 8.98608H12V1.16741C11.9988 1.11953 11.9656 1.0738 11.9073 1.03995C11.849 1.00609 11.7704 0.986763 11.688 0.986084Z" fill="white"/>
</svg>
